HIERARCHY
ROOT Hips
{
	OFFSET -0.001795 -0.223333 0.028219
	CHANNELS 6 Xposition Yposition Zposition Zrotation Yrotation Xrotation 
	JOINT LeftUpLeg
	{
		OFFSET 0.069520 -0.091406 -0.006815
		CHANNELS 3 Zrotation Yrotation Xrotation
		JOINT LeftLeg
		{
			OFFSET 0.034277 -0.375199 -0.004496
			CHANNELS 3 Zrotation Yrotation Xrotation
			JOINT LeftFoot
			{
				OFFSET -0.013596 -0.397961 -0.043693
				CHANNELS 3 Zrotation Yrotation Xrotation
				JOINT LeftToe
				{
					OFFSET 0.026358 -0.055791 0.119288
					CHANNELS 3 Zrotation Yrotation Xrotation
					End Site
					{
						OFFSET 0.000000 0.000000 0.000000
					}
				}
			}
		}
	}
	JOINT RightUpLeg
	{
		OFFSET -0.067670 -0.090522 -0.004320
		CHANNELS 3 Zrotation Yrotation Xrotation
		JOINT RightLeg
		{
			OFFSET -0.038290 -0.382569 -0.008850
			CHANNELS 3 Zrotation Yrotation Xrotation
			JOINT RightFoot
			{
				OFFSET 0.015774 -0.398415 -0.042312
				CHANNELS 3 Zrotation Yrotation Xrotation
				JOINT RightToe
				{
					OFFSET -0.025372 -0.048144 0.123348
					CHANNELS 3 Zrotation Yrotation Xrotation
					End Site
					{
						OFFSET 0.000000 0.000000 0.000000
					}
				}
			}
		}
	}
	JOINT Spine
	{
		OFFSET -0.002533 0.108963 -0.026696
		CHANNELS 3 Zrotation Yrotation Xrotation
		JOINT Spine1
		{
			OFFSET 0.005487 0.135180 0.001092
			CHANNELS 3 Zrotation Yrotation Xrotation
			JOINT Spine2
			{
				OFFSET 0.001457 0.052922 0.025425
				CHANNELS 3 Zrotation Yrotation Xrotation
				JOINT Neck
				{
					OFFSET -0.002778 0.213870 -0.042857
					CHANNELS 3 Zrotation Yrotation Xrotation
					JOINT Head
					{
						OFFSET 0.005152 0.064970 0.051349
						CHANNELS 3 Zrotation Yrotation Xrotation
						End Site
						{
							OFFSET 0.000000 0.000000 0.000000
						}
					}
				}
				JOINT LeftShoulder
				{
					OFFSET 0.078845 0.121749 -0.034090
					CHANNELS 3 Zrotation Yrotation Xrotation
					JOINT LeftArm
					{
						OFFSET 0.090977 0.030469 -0.008868
						CHANNELS 3 Zrotation Yrotation Xrotation
						JOINT LeftForeArm
						{
							OFFSET 0.259612 -0.012772 -0.027456
							CHANNELS 3 Zrotation Yrotation Xrotation
							JOINT LeftHand
							{
								OFFSET 0.249234 0.008986 -0.001171
								CHANNELS 3 Zrotation Yrotation Xrotation
								End Site
								{
									OFFSET 0.000000 0.000000 0.000000
								}
							}
						}
					}
				}
				JOINT RightShoulder
				{
					OFFSET -0.081759 0.118833 -0.038615
					CHANNELS 3 Zrotation Yrotation Xrotation
					JOINT RightArm
					{
						OFFSET -0.096012 0.032551 -0.009143
						CHANNELS 3 Zrotation Yrotation Xrotation
						JOINT RightForeArm
						{
							OFFSET -0.253742 -0.013329 -0.021401
							CHANNELS 3 Zrotation Yrotation Xrotation
							JOINT RightHand
							{
								OFFSET -0.255298 0.007772 -0.005559
								CHANNELS 3 Zrotation Yrotation Xrotation
								End Site
								{
									OFFSET 0.000000 0.000000 0.000000
								}
							}
						}
					}
				}
			}
		}
	}
}
MOTION
Frames: 10
Frame Time: 0.050000
-0.003941 1.023277 0.109657 -1.804233 -0.188926 0.420472 4.691872 0.252050 6.282344 -2.711755 0.222861 7.472594 3.243478 5.607151 -3.697188 0.000000 0.000000 0.000000 -1.955394 1.605665 -18.563024 7.053016 -1.197441 19.520171 -4.921519 -13.166595 4.719407 0.000000 0.000000 0.000000 -0.048098 -0.371957 9.067697 5.574492 -0.671756 -25.068663 -1.745913 -5.710428 27.466910 -0.848156 0.979995 -23.870825 0.000000 0.000000 0.000000 -28.384016 6.385073 -3.870825 -46.771362 -5.347249 -6.366511 -19.637794 -31.278071 7.826888 0.000000 0.000000 0.000000 20.517999 1.317365 -2.102803 52.534628 2.312357 -6.167786 8.802489 31.581709 3.408302 0.000000 0.000000 0.000000 
-0.003941 1.023277 0.109657 -1.804233 -0.188926 0.420472 4.691872 0.252050 6.282344 -2.711755 0.222861 7.472594 3.243478 5.607151 -3.697188 0.000000 0.000000 0.000000 -1.955394 1.605665 -18.563024 7.053016 -1.197441 19.520171 -4.921519 -13.166595 4.719407 0.000000 0.000000 0.000000 -0.048098 -0.371957 9.067697 5.574492 -0.671756 -25.068663 -1.745913 -5.710428 27.466910 -0.848156 0.979995 -23.870825 0.000000 0.000000 0.000000 -28.384016 6.385073 -3.870825 -46.771362 -5.347249 -6.366511 -19.637794 -31.278071 7.826888 0.000000 0.000000 0.000000 20.517999 1.317365 -2.102803 52.534628 2.312357 -6.167786 8.802489 31.581709 3.408302 0.000000 0.000000 0.000000 
-0.003941 0.940832 0.109657 -2.443985 -0.114289 0.841364 6.504477 0.185510 8.285523 -4.371468 0.612546 26.624967 3.494177 7.780601 1.479154 0.000000 0.000000 0.000000 -2.184747 2.317304 -27.395831 9.634900 -2.412426 28.975752 -6.330139 -16.272637 5.626039 0.000000 0.000000 0.000000 2.740814 -0.671773 9.711567 6.457082 -0.907028 -24.683475 -2.783177 -7.985352 28.095186 -2.818748 1.789759 -22.900020 0.000000 0.000000 0.000000 -28.971296 6.748546 -3.298396 -46.138283 -5.583363 -6.539352 -21.100338 -33.303661 9.090633 0.000000 0.000000 0.000000 20.277438 2.314852 -2.175504 52.557298 -0.571458 -7.274971 5.368847 23.777692 1.705343 0.000000 0.000000 0.000000 
-0.003941 0.947117 0.109657 -2.115193 -0.779123 0.640384 6.535305 0.050934 3.791454 -6.768885 1.768820 33.608976 5.101223 10.011326 -2.926307 0.000000 0.000000 0.000000 -1.371257 2.210564 -23.969632 8.631547 -1.891197 27.340932 -6.309609 -16.032661 3.323991 0.000000 0.000000 0.000000 2.084395 -0.641685 10.409788 6.422176 -0.920471 -24.551196 -2.005337 -6.446498 27.732501 -2.720436 1.932092 -23.034445 0.000000 0.000000 0.000000 -29.809022 6.429187 -3.564885 -45.217470 -5.459623 -6.389837 -21.215751 -31.763642 8.522393 0.000000 0.000000 0.000000 20.968686 2.545016 -1.820410 51.809938 0.334240 -6.807750 4.501388 23.367406 1.563555 0.000000 0.000000 0.000000 
-0.003941 0.958664 0.109657 -1.713252 -2.243259 0.447864 6.343770 -0.228176 -5.058576 -10.395686 4.448245 43.564157 7.336749 14.389693 -7.110723 0.000000 0.000000 0.000000 -0.352552 1.950949 -19.227862 7.059355 -1.130282 24.250774 -5.928812 -14.995506 1.782002 0.000000 0.000000 0.000000 1.426790 -0.635754 11.948057 6.391039 -0.905096 -24.872143 -0.983766 -3.558598 27.674695 -2.270233 2.011762 -23.501100 0.000000 0.000000 0.000000 -29.913792 5.858914 -3.931615 -44.786781 -4.171159 -6.585814 -21.329032 -31.049649 8.165746 0.000000 0.000000 0.000000 21.076676 3.656592 -0.586244 50.808029 2.313131 -6.036374 5.454584 25.265506 1.997505 0.000000 0.000000 0.000000 
-0.003941 0.979974 0.109657 -0.725223 -3.180631 -0.507800 7.314153 -0.521337 -23.201478 -14.443046 8.953627 56.914344 9.275943 18.862888 -2.293976 0.000000 0.000000 0.000000 0.159682 1.082113 -10.549507 4.900309 -0.431857 16.841190 -5.253049 -13.386596 1.785720 0.000000 0.000000 0.000000 0.166055 -0.580506 15.084677 6.182945 -0.902130 -24.527096 0.571966 1.251968 27.132623 -1.591732 2.346350 -23.879304 0.000000 0.000000 0.000000 -30.383214 4.637170 -4.879016 -44.103529 -2.084179 -6.652110 -21.432183 -30.089587 7.526245 0.000000 0.000000 0.000000 19.136860 4.755251 1.361463 49.399492 7.274079 -4.217419 7.584128 31.955139 3.467971 0.000000 0.000000 0.000000 
-0.003941 0.994889 0.109657 0.197431 -4.331563 -1.001312 7.392138 -0.482279 -35.691040 -15.335491 9.321656 53.799588 10.636653 21.299172 3.168312 0.000000 0.000000 0.000000 0.041901 0.300483 -3.063885 3.100700 -0.111481 10.175400 -3.638986 -10.137879 3.425108 0.000000 0.000000 0.000000 -1.504981 -0.353698 17.695240 6.178627 -0.861056 -25.199768 2.355227 5.453632 27.708334 -1.649680 3.033049 -25.043182 0.000000 0.000000 0.000000 -30.521859 3.566191 -5.611340 -43.704194 -0.476329 -6.726828 -22.031028 -29.615188 7.268932 0.000000 0.000000 0.000000 16.637827 5.501332 2.606524 47.507081 11.305327 -2.767379 8.818758 37.911669 4.964640 0.000000 0.000000 0.000000 
-0.003941 0.996028 0.109657 0.359976 -4.666937 -0.640645 7.069316 -0.544222 -39.019046 -13.634610 6.361393 41.449453 9.395844 19.016291 4.164111 0.000000 0.000000 0.000000 0.062372 -0.115664 1.190708 2.215479 -0.035476 7.080901 -2.905800 -8.515751 3.491637 0.000000 0.000000 0.000000 -1.837800 -0.286893 17.776161 5.172710 -0.681838 -24.537649 3.033406 6.896972 27.305450 -2.701725 3.864045 -25.380260 0.000000 0.000000 0.000000 -30.394273 2.990007 -5.752051 -43.541604 0.546289 -6.835265 -22.747885 -29.394639 7.282572 0.000000 0.000000 0.000000 15.116007 5.622315 2.847116 47.390382 12.930029 -2.094845 9.388000 40.427632 5.704547 0.000000 0.000000 0.000000 
-0.003941 0.987872 0.109657 0.224604 -5.847566 -0.644347 6.729119 -0.481205 -39.076647 -10.539442 3.455684 27.373109 8.610573 17.503867 3.223968 0.000000 0.000000 0.000000 0.154893 -0.545415 5.828830 1.391915 0.019813 4.738303 -2.522626 -6.933852 1.649322 0.000000 0.000000 0.000000 -1.934437 -0.236156 17.905536 4.945848 -0.668303 -24.187929 3.186144 7.811516 27.063129 -2.831741 3.990689 -26.092642 0.000000 0.000000 0.000000 -30.022275 4.148662 -6.574312 -44.073657 1.618206 -7.211937 -24.208122 -28.917148 7.533773 0.000000 0.000000 0.000000 13.577131 5.860807 2.902858 47.161924 14.492782 -1.409145 10.413576 43.330461 6.660982 0.000000 0.000000 0.000000 
-0.003941 0.973944 0.109657 -0.073663 -7.601298 -0.629945 7.479961 0.063872 -38.479018 -8.323485 2.067366 18.015356 8.431372 17.069334 2.916645 0.000000 0.000000 0.000000 -0.245917 -0.786941 9.503058 1.203442 0.057355 4.825041 -2.727687 -5.926602 -1.539548 0.000000 0.000000 0.000000 -2.392097 -0.111921 17.698952 5.040825 -0.608203 -25.514412 3.277969 9.683025 28.537314 -2.613911 4.071114 -27.211027 0.000000 0.000000 0.000000 -29.219569 4.601306 -6.963422 -44.669856 1.887685 -7.486347 -22.804849 -28.204912 6.943161 0.000000 0.000000 0.000000 14.186931 5.932945 3.164076 45.605830 15.905065 -1.148083 11.937255 44.242656 7.567916 0.000000 0.000000 0.000000 
